<svg width="623" height="527" viewBox="0 0 623 527" fill="none" xmlns="http://www.w3.org/2000/svg">
<path d="M0.127999 0.109272V526.891H31.5297C57.1716 526.891 75.6031 512.519 89.384 495.962C89.4266 495.962 89.4693 495.852 89.512 495.798C89.512 495.798 89.5546 495.743 89.5973 495.688C89.5973 495.688 206.543 366.397 265.037 301.752C267.427 299.129 269.56 296.233 271.352 293.227V293.173C272.248 291.697 273.101 290.167 273.826 288.637C275.32 285.467 276.557 282.243 277.453 278.91C277.88 277.271 278.264 275.577 278.562 273.883C278.733 272.954 278.818 272.134 278.904 271.314V271.205C279.032 270.385 279.16 269.566 279.202 268.691V268.582C279.288 267.762 279.33 266.943 279.373 266.068C279.373 265.139 279.416 264.265 279.416 263.391C279.416 259.948 279.117 256.451 278.52 253.063C278.392 252.243 278.178 251.369 277.965 250.549C277.794 249.675 277.581 248.8 277.368 247.981C276.685 245.467 275.832 243.063 274.808 240.658C274.466 239.839 274.125 239.019 273.741 238.254C273.357 237.489 272.973 236.724 272.546 235.959C272.12 235.194 271.693 234.374 271.224 233.609C269.432 230.604 267.299 227.817 264.909 225.194C206.415 160.548 89.4693 31.2572 89.4693 31.2572C89.4693 31.2572 89.4266 31.2025 89.384 31.1479C89.384 31.1479 89.2986 31.0386 89.256 30.9839C75.4751 14.4264 57.0436 0 31.4017 0H0L0.127999 0.109272ZM591.556 0.109272C565.914 0.109272 547.482 14.5356 533.701 31.0932C533.701 31.1478 533.616 31.2025 533.573 31.2572C533.573 31.2572 533.531 31.3118 533.531 31.3664C533.531 31.3664 416.542 160.657 358.048 225.303C355.659 227.926 353.568 230.767 351.776 233.718C351.349 234.483 350.88 235.303 350.453 236.068C350.069 236.833 349.643 237.598 349.259 238.363C348.875 239.128 348.534 240.003 348.192 240.768C347.211 243.172 346.315 245.576 345.632 248.09C345.419 248.91 345.248 249.839 345.035 250.658C344.864 251.478 344.651 252.352 344.48 253.172C343.883 256.615 343.584 260.057 343.584 263.5C343.584 264.374 343.584 265.249 343.67 266.068C343.67 266.997 343.755 267.817 343.84 268.637V268.746C343.926 269.62 344.011 270.44 344.139 271.26V271.369C344.267 272.189 344.352 273.008 344.48 273.883V273.937C344.779 275.631 345.163 277.271 345.632 278.965C346.528 282.298 347.766 285.577 349.259 288.692C350.027 290.222 350.88 291.752 351.776 293.227V293.282C353.568 296.287 355.659 299.129 358.048 301.806C416.542 366.452 533.531 495.743 533.531 495.743C533.531 495.743 533.531 495.798 533.573 495.852C533.616 495.852 533.659 495.907 533.701 496.016C547.482 512.574 565.914 526.945 591.556 526.945H622.957V0.163929H591.556V0.109272Z" fill="#DFC49F"/>
<path d="M0.127999 0.109272V526.891H31.5297C57.1716 526.891 75.6031 512.519 89.384 495.962C89.4266 495.962 89.4693 495.852 89.512 495.798C89.512 495.798 89.5546 495.743 89.5973 495.688C89.5973 495.688 206.543 366.397 265.037 301.752C267.427 299.129 269.56 296.233 271.352 293.227V293.173C272.248 291.697 273.101 290.167 273.826 288.637C275.32 285.467 276.557 282.243 277.453 278.91C277.88 277.271 278.264 275.577 278.562 273.883C278.733 272.954 278.818 272.134 278.904 271.314V271.205C279.032 270.385 279.16 269.566 279.202 268.691V268.582C279.288 267.762 279.33 266.943 279.373 266.068C279.373 265.139 279.416 264.265 279.416 263.391C279.416 259.948 279.117 256.451 278.52 253.063C278.392 252.243 278.178 251.369 277.965 250.549C277.794 249.675 277.581 248.8 277.368 247.981C276.685 245.467 275.832 243.063 274.808 240.658C274.466 239.839 274.125 239.019 273.741 238.254C273.357 237.489 272.973 236.724 272.546 235.959C272.12 235.194 271.693 234.374 271.224 233.609C269.432 230.604 267.299 227.817 264.909 225.194C206.415 160.548 89.4693 31.2572 89.4693 31.2572C89.4693 31.2572 89.4266 31.2025 89.384 31.1479C89.384 31.1479 89.2986 31.0386 89.256 30.9839C75.4751 14.4264 57.0436 0 31.4017 0H0L0.127999 0.109272ZM591.556 0.109272C565.914 0.109272 547.482 14.5356 533.701 31.0932C533.701 31.1478 533.616 31.2025 533.573 31.2572C533.573 31.2572 533.531 31.3118 533.531 31.3664C533.531 31.3664 416.542 160.657 358.048 225.303C355.659 227.926 353.568 230.767 351.776 233.718C351.349 234.483 350.88 235.303 350.453 236.068C350.069 236.833 349.643 237.598 349.259 238.363C348.875 239.128 348.534 240.003 348.192 240.768C347.211 243.172 346.315 245.576 345.632 248.09C345.419 248.91 345.248 249.839 345.035 250.658C344.864 251.478 344.651 252.352 344.48 253.172C343.883 256.615 343.584 260.057 343.584 263.5C343.584 264.374 343.584 265.249 343.67 266.068C343.67 266.997 343.755 267.817 343.84 268.637V268.746C343.926 269.62 344.011 270.44 344.139 271.26V271.369C344.267 272.189 344.352 273.008 344.48 273.883V273.937C344.779 275.631 345.163 277.271 345.632 278.965C346.528 282.298 347.766 285.577 349.259 288.692C350.027 290.222 350.88 291.752 351.776 293.227V293.282C353.568 296.287 355.659 299.129 358.048 301.806C416.542 366.452 533.531 495.743 533.531 495.743C533.531 495.743 533.531 495.798 533.573 495.852C533.616 495.852 533.659 495.907 533.701 496.016C547.482 512.574 565.914 526.945 591.556 526.945H622.957V0.163929H591.556V0.109272Z" fill="#DFC49F"/>
<path d="M239.182 196.833C158.673 280.112 36.9056 406.015 36.9056 406.015C36.9056 406.015 36.9056 406.015 36.8202 406.07C36.7776 406.125 36.6922 406.179 36.6496 406.234C17.0235 424.868 0.0426712 449.786 0.0426712 484.431V526.836H31.4444C57.0863 526.836 75.5177 512.519 89.2986 495.907C89.3413 495.907 89.384 495.798 89.4266 495.743C89.4266 495.743 89.4266 495.743 89.4693 495.688C89.4693 495.688 206.415 366.397 264.952 301.752C267.341 299.129 269.432 296.233 271.224 293.227V293.173C272.12 291.697 272.973 290.167 273.698 288.582C275.192 285.468 276.429 282.189 277.325 278.855C277.752 277.216 278.136 275.522 278.434 273.828V273.719C278.605 272.899 278.69 272.079 278.818 271.205C278.818 271.205 278.818 271.15 278.818 271.096C278.904 270.276 279.032 269.402 279.117 268.582C279.202 267.653 279.245 266.833 279.288 266.014C279.288 265.085 279.373 264.21 279.373 263.336C279.373 259.893 279.074 256.396 278.477 253.008C278.349 252.134 278.136 251.314 277.922 250.494C277.752 249.675 277.538 248.746 277.325 247.926C276.642 245.412 275.789 243.008 274.765 240.604C274.424 239.784 274.082 238.964 273.698 238.199C273.314 237.434 272.93 236.669 272.504 235.959C272.077 235.194 271.651 234.319 271.181 233.609C269.389 230.604 267.299 227.817 264.867 225.194C256.291 215.74 249.678 208.418 239.097 196.778L239.182 196.833ZM383.775 196.833C373.237 208.472 366.624 215.795 358.048 225.248C355.659 227.871 353.568 230.713 351.776 233.664C351.349 234.429 350.88 235.248 350.496 236.013C350.069 236.778 349.685 237.489 349.301 238.254C348.917 239.019 348.576 239.893 348.235 240.658C347.254 243.063 346.358 245.467 345.675 247.981C345.462 248.8 345.291 249.729 345.078 250.549C344.907 251.369 344.694 252.188 344.523 253.063C343.926 256.451 343.627 259.948 343.627 263.391C343.627 264.265 343.627 265.085 343.712 265.959C343.712 266.888 343.798 267.708 343.883 268.527V268.582C343.968 269.456 344.096 270.276 344.182 271.096C344.31 272.025 344.395 272.844 344.566 273.664C344.566 273.664 344.566 273.719 344.566 273.773C344.864 275.467 345.248 277.107 345.675 278.801C346.571 282.134 347.808 285.413 349.301 288.528C350.069 290.058 350.923 291.588 351.819 293.118C353.611 296.178 355.701 299.074 358.091 301.697C416.585 366.343 533.573 495.634 533.573 495.634C533.573 495.634 533.573 495.688 533.616 495.688C533.659 495.688 533.701 495.798 533.744 495.852C547.525 512.464 565.956 526.782 591.598 526.782H623V484.377C623 449.731 606.019 424.759 586.393 406.179C586.35 406.179 586.265 406.07 586.222 406.015C586.222 406.015 586.18 406.015 586.137 405.961C586.137 405.961 464.413 280.003 383.86 196.723L383.775 196.833Z" fill="#D5BC96"/>
<path d="M311.5 169.182C307.404 169.182 303.308 169.565 299.298 170.33C298.316 170.494 297.292 170.767 296.311 171.04C295.33 171.313 294.263 171.532 293.282 171.805C290.338 172.679 287.437 173.772 284.621 175.084C283.682 175.521 282.701 176.013 281.762 176.45C280.866 176.942 279.928 177.434 279.032 177.98C278.136 178.526 277.197 179.073 276.301 179.674C272.76 181.969 269.389 184.647 266.275 187.707C189.818 262.626 36.9482 412.409 36.9482 412.409C36.9482 412.409 36.9482 412.463 36.8629 412.518C36.8202 412.573 36.7349 412.627 36.6922 412.682C17.0662 430.332 0.08535 453.939 0.08535 486.781V527H622.915V486.781C622.915 453.939 605.934 430.332 586.308 412.682C586.222 412.682 586.18 412.573 586.137 412.518C586.137 412.518 586.137 412.463 586.052 412.409C586.052 412.409 433.182 262.626 356.725 187.707C353.611 184.647 350.24 181.914 346.699 179.674C346.699 179.674 346.656 179.674 346.614 179.674C344.864 178.526 343.072 177.434 341.195 176.45C341.195 176.45 341.195 176.45 341.152 176.45C337.44 174.537 333.643 172.953 329.675 171.805H329.633C327.67 171.204 325.708 170.767 323.702 170.33H323.617C322.636 170.166 321.654 170.056 320.63 169.892H320.588C319.606 169.729 318.54 169.619 317.558 169.51H317.516C316.534 169.401 315.553 169.346 314.529 169.291H314.444C313.42 169.291 312.396 169.237 311.372 169.237L311.5 169.182Z" fill="#E7CDA8"/>
</svg>
