<svg viewBox="0 0 623 330" fill="none" xmlns="http://www.w3.org/2000/svg">
<defs>
<filter id="dropShadow" x="-50%" y="-50%" width="200%" height="200%">
<feGaussianBlur in="SourceAlpha" stdDeviation="3"/>
<feOffset dx="0" dy="4" result="offsetblur"/>
<feComponentTransfer>
<feFuncA type="linear" slope="0.3"/>
</feComponentTransfer>
<feMerge>
<feMergeNode/>
<feMergeNode in="SourceGraphic"/>
</feMerge>
</filter>
</defs>
<path d="M311.543 320C307.446 320 303.349 319.617 299.294 318.852C298.313 318.688 297.288 318.414 296.307 318.141C295.325 317.922 294.258 317.649 293.277 317.375C290.332 316.5 287.43 315.407 284.613 314.094C283.675 313.657 282.693 313.219 281.754 312.727C280.815 312.235 279.919 311.743 279.023 311.196C278.126 310.649 277.188 310.103 276.291 309.556C272.749 307.259 269.378 304.525 266.262 301.463C189.785 226.493 36.873 76.6097 36.873 76.6097C36.873 76.6097 36.8303 76.555 36.7876 76.5003C36.745 76.5003 36.6596 76.391 36.6169 76.3363C16.9855 58.6739 0 35.0512 0 2.18722V7.31836e-06H623V2.18722C623 35.0512 606.014 58.6739 586.383 76.3363C586.34 76.391 586.255 76.4456 586.212 76.5003C586.212 76.5003 586.17 76.555 586.127 76.6097C586.127 76.6097 433.215 226.493 356.738 301.463C353.622 304.525 350.251 307.259 346.709 309.556C346.709 309.556 346.709 309.556 346.666 309.556C344.916 310.704 343.081 311.798 341.246 312.727H341.161C337.448 314.641 333.649 316.227 329.723 317.375H329.68C327.717 317.977 325.754 318.469 323.748 318.852H323.663C322.681 319.07 321.7 319.18 320.676 319.289H320.633C319.651 319.453 318.584 319.617 317.603 319.672H317.517C316.536 319.781 315.554 319.836 314.573 319.891H314.53C313.506 319.891 312.482 319.945 311.457 319.945L311.543 320Z" fill="#D5BC96" filter="url(#dropShadow)"/>
</svg>
