<svg viewBox="0 0 623 318" fill="none" xmlns="http://www.w3.org/2000/svg">
<path d="M311.5 0C307.404 0 303.307 0.38277 299.253 1.14832C298.272 1.31237 297.248 1.58578 296.266 1.85919C295.285 2.07792 294.218 2.35133 293.237 2.62474C290.292 3.49966 287.391 4.5933 284.574 5.90567C283.636 6.34313 282.654 6.78059 281.715 7.27273C280.777 7.76487 279.881 8.25701 278.985 8.80383C278.088 9.35065 277.15 9.89747 276.254 10.4443C272.712 12.7409 269.341 15.4751 266.226 18.5373C189.759 93.5065 36.8679 243.39 36.8679 243.39C36.8679 243.39 36.8253 243.445 36.7826 243.5C36.7399 243.5 36.6546 243.609 36.6119 243.664C16.9831 261.326 0 284.949 0 317.813V318H622.915V317.813C622.915 284.949 605.932 261.326 586.303 243.664C586.26 243.609 586.175 243.554 586.132 243.5C586.132 243.5 586.089 243.445 586.047 243.39C586.047 243.39 433.156 93.5065 356.689 18.5373C353.574 15.4751 350.203 12.7409 346.661 10.4443C346.661 10.4443 346.661 10.4443 346.618 10.4443C344.869 9.29597 343.034 8.20232 341.199 7.27273H341.114C337.401 5.35885 333.604 3.77307 329.678 2.62474H329.635C327.672 2.02324 325.71 1.5311 323.704 1.14832H323.619C322.637 0.929592 321.656 0.820228 320.632 0.710864H320.589C319.608 0.546817 318.541 0.382772 317.559 0.32809H317.474C316.493 0.218726 315.511 0.164049 314.53 0.109367H314.487C313.463 0.109367 312.439 0.0546834 311.415 0.0546834L311.5 0Z" fill="#efefef"/>
<path d="M311.5 0C307.404 0 303.307 0.38277 299.253 1.14832C298.272 1.31237 297.248 1.58578 296.266 1.85919C295.285 2.07792 294.218 2.35133 293.237 2.62474C290.292 3.49966 287.391 4.5933 284.574 5.90567C283.636 6.34313 282.654 6.78059 281.715 7.27273C280.777 7.76487 279.881 8.25701 278.985 8.80383C278.088 9.35065 277.15 9.89747 276.254 10.4443C272.712 12.7409 269.341 15.4204 266.226 18.4826C189.759 93.4518 36.8679 243.39 36.8679 243.39C36.8679 243.39 36.8679 243.445 36.7826 243.445C36.7399 243.5 36.6546 243.554 36.6119 243.609C16.9831 261.217 0 285.191 0 318H31.5C32.3961 318 33.1466 317.945 34 318C37.243 294.323 50.6934 276.418 65.9271 262.693C65.9697 262.693 66.0124 262.584 66.0551 262.529C66.0551 262.529 66.0977 262.474 66.1404 262.474C66.1404 262.474 202.731 128.503 271.048 61.5721C273.821 58.838 276.851 56.4867 280.009 54.4088C280.777 53.9166 281.63 53.3698 282.441 52.8777C283.252 52.3855 284.062 51.8934 284.873 51.5106C285.684 51.0731 286.58 50.6904 287.433 50.3076C289.951 49.1593 292.554 48.175 295.2 47.4094C296.096 47.136 296.992 46.9173 297.888 46.6986C298.784 46.4798 299.68 46.2611 300.576 46.0971C304.161 45.3862 307.83 45.0034 311.5 45.0034C312.396 45.0034 313.378 45.0034 314.274 45.1128C315.17 45.1128 316.066 45.2221 316.919 45.3315H317.005C317.901 45.4409 318.839 45.4956 319.736 45.6596C320.632 45.769 321.528 45.933 322.424 46.1518H322.466C324.259 46.4798 326.008 46.9173 327.758 47.4094C327.758 47.4094 327.8 47.4094 327.843 47.4094C331.342 48.4484 334.798 49.8155 338.127 51.5106C338.127 51.5106 338.127 51.5106 338.17 51.5106C339.834 52.3855 341.413 53.3698 342.991 54.4088C342.991 54.4088 342.991 54.4088 343.034 54.4088C346.192 56.4867 349.221 58.838 351.995 61.5721C420.269 128.558 556.902 262.474 556.902 262.474C556.902 262.474 556.902 262.474 556.945 262.529C556.988 262.529 557.03 262.638 557.073 262.693C572.307 276.418 585.757 294.323 589 318C589.896 318 590.604 318 591.5 318H622.915C622.915 285.191 606.017 261.217 586.388 243.609C586.345 243.554 586.26 243.5 586.217 243.445C586.217 243.445 586.217 243.445 586.132 243.39C586.132 243.39 433.241 93.5065 356.774 18.4826C353.659 15.4204 350.288 12.7409 346.746 10.4443C346.746 10.4443 346.746 10.4443 346.704 10.4443C344.954 9.29597 343.119 8.20232 341.285 7.27273C341.285 7.27273 341.242 7.27273 341.199 7.27273C337.487 5.35885 333.689 3.77307 329.763 2.62474C329.763 2.62474 329.763 2.62474 329.721 2.62474C327.758 2.07792 325.795 1.58578 323.789 1.203H323.704C322.723 0.984275 321.741 0.87491 320.717 0.710864C320.717 0.710864 320.717 0.710864 320.674 0.710864C319.693 0.601499 318.626 0.437454 317.645 0.32809H317.559C316.578 0.218726 315.596 0.109367 314.615 0.109367H314.572C313.548 0.109367 312.524 0 311.5 0Z" fill="#CEB38B"/>
</svg>
